<mxfile host="app.diagrams.net" modified="2024-06-30T02:52:55.706Z" agent="Mozilla/5.0 (Macintosh; Intel Mac OS X 10_15_7) AppleWebKit/537.36 (KHTML, like Gecko) Chrome/126.0.0.0 Safari/537.36" version="24.6.2" etag="u0_0LWhKAYCR7NTotkz5" type="github">
  <diagram name="페이지-1" id="BGirxdH1UNVHnlv0NWqQ">
    <mxGraphModel>
      <root>
        <mxCell id="0" />
        <mxCell id="1" parent="0" />
      </root>
    </mxGraphModel>
  </diagram>
</mxfile>
